<?xml version="1.0" standalone="no"?>
<!DOCTYPE svg PUBLIC "-//W3C//DTD SVG 20010904//EN"
 "http://www.w3.org/TR/2001/REC-SVG-20010904/DTD/svg10.dtd">
<svg version="1.0" xmlns="http://www.w3.org/2000/svg"
 width="512.000000pt" height="512.000000pt" viewBox="0 0 512.000000 512.000000"
 preserveAspectRatio="xMidYMid meet">

<g transform="translate(0.000000,512.000000) scale(0.100000,-0.100000)"
fill="#000000" stroke="none">
<path d="M0 2560 l0 -2560 2560 0 2560 0 0 2560 0 2560 -2560 0 -2560 0 0
-2560z m1620 735 l0 -145 -430 0 -430 0 2 -227 3 -228 323 -3 323 -2 -3 -133
-3 -132 -322 -3 -323 -2 0 -370 0 -370 -160 0 -160 0 0 873 c0 481 3 877 7
880 3 4 269 7 590 7 l583 0 0 -145z m442 128 c8 -10 188 -274 399 -587 l384
-570 5 585 5 584 158 3 157 3 0 -881 0 -880 -144 0 -144 0 -393 583 -394 583
-5 -581 -5 -580 -160 0 -160 0 -3 865 c-1 476 0 871 3 878 3 9 41 12 143 12
120 0 141 -2 154 -17z m2616 -130 l3 -143 -261 0 -260 0 0 -735 0 -735 -160 0
-160 0 0 735 0 735 -262 2 -263 3 -3 129 c-1 72 0 136 2 143 4 11 132 13 683
11 l678 -3 3 -142z"/>
</g>
</svg>
